<?xml version="1.0" standalone="yes"?>

<svg version="1.1" viewBox="0.0 0.0 615.3569553805775 620.1942257217847" fill="none" stroke="none" stroke-linecap="square" stroke-miterlimit="10" xmlns="http://www.w3.org/2000/svg" xmlns:xlink="http://www.w3.org/1999/xlink"><clipPath id="p.0"><path d="m0 0l615.35693 0l0 620.1942l-615.35693 0l0 -620.1942z" clip-rule="nonzero"></path></clipPath><g clip-path="url(#p.0)"><path fill="#000000" fill-opacity="0.0" d="m0 0l615.35693 0l0 620.1942l-615.35693 0z" fill-rule="nonzero"></path><path fill="#000000" d="m4.734908 79.004684l0 0c0 -20.592953 16.693886 -37.28684 37.286835 -37.28684l149.14287 0l0 0c9.889084 0 19.373138 3.9284248 26.365784 10.921062c6.99263 6.9926376 10.921051 16.476692 10.921051 26.365776l0 300.57593c0 20.592957 -16.693878 37.286835 -37.286835 37.286835l-149.14287 0c-20.59295 0 -37.286835 -16.693878 -37.286835 -37.286835z" fill-rule="nonzero"></path><path stroke="#000000" stroke-width="2.0" stroke-linejoin="round" stroke-linecap="butt" d="m4.734908 79.004684l0 0c0 -20.592953 16.693886 -37.28684 37.286835 -37.28684l149.14287 0l0 0c9.889084 0 19.373138 3.9284248 26.365784 10.921062c6.99263 6.9926376 10.921051 16.476692 10.921051 26.365776l0 300.57593c0 20.592957 -16.693878 37.286835 -37.286835 37.286835l-149.14287 0c-20.59295 0 -37.286835 -16.693878 -37.286835 -37.286835z" fill-rule="nonzero"></path><path fill="#000000" d="m106.27821 398.80447l0 0c0 -5.5228577 4.618164 -10.0 10.314964 -10.0l0 0c2.735695 0 5.3593445 1.0535583 7.2937775 2.9289246c1.9344254 1.8753662 3.0211792 4.4188843 3.0211792 7.0710754l0 0c0 5.522827 -4.618164 10.0 -10.314957 10.0l0 0c-5.6968 0 -10.314964 -4.477173 -10.314964 -10.0z" fill-rule="nonzero"></path><path stroke="#ffffff" stroke-width="3.0" stroke-linejoin="round" stroke-linecap="butt" d="m106.27821 398.80447l0 0c0 -5.5228577 4.618164 -10.0 10.314964 -10.0l0 0c2.735695 0 5.3593445 1.0535583 7.2937775 2.9289246c1.9344254 1.8753662 3.0211792 4.4188843 3.0211792 7.0710754l0 0c0 5.522827 -4.618164 10.0 -10.314957 10.0l0 0c-5.6968 0 -10.314964 -4.477173 -10.314964 -10.0z" fill-rule="nonzero"></path><path fill="#ffffff" d="m23.463255 67.208664l189.70078 0l0 312.4724l-189.70078 0z" fill-rule="nonzero"></path><path stroke="#000000" stroke-width="2.0" stroke-linejoin="round" stroke-linecap="butt" d="m23.463255 67.208664l189.70078 0l0 312.4724l-189.70078 0z" fill-rule="nonzero"></path><path fill="#000000" d="m99.154854 395.27167l0 0c0 -7.549347 5.908432 -13.669312 13.196854 -13.669312l0 0c3.500023 0 6.8566895 1.440155 9.331581 4.003662c2.4748917 2.5634766 3.8652725 6.0403137 3.8652725 9.665649l0 0c0 7.5493164 -5.908432 13.669281 -13.196854 13.669281l0 0c-7.2884216 0 -13.196854 -6.1199646 -13.196854 -13.669281z" fill-rule="nonzero"></path><path stroke="#ffffff" stroke-width="4.0" stroke-linejoin="round" stroke-linecap="butt" d="m99.154854 395.27167l0 0c0 -7.549347 5.908432 -13.669312 13.196854 -13.669312l0 0c3.500023 0 6.8566895 1.440155 9.331581 4.003662c2.4748917 2.5634766 3.8652725 6.0403137 3.8652725 9.665649l0 0c0 7.5493164 -5.908432 13.669281 -13.196854 13.669281l0 0c-7.2884216 0 -13.196854 -6.1199646 -13.196854 -13.669281z" fill-rule="nonzero"></path><path fill="#ffff00" d="m49.1916 69.369545l134.80315 0l0 78.960625l-134.80315 0z" fill-rule="nonzero"></path><path fill="#ff9900" d="m49.1916 158.84645l134.80315 0l0 133.82677l-134.80315 0z" fill-rule="nonzero"></path><path fill="#4a86e8" d="m49.4416 304.47174l134.80315 0l0 73.88977l-134.80315 0z" fill-rule="nonzero"></path><path fill="#000000" fill-opacity="0.0" d="m0 325.521l223.71654 0l0 48.0l-223.71654 0z" fill-rule="nonzero"></path><path fill="#ffffff" d="m85.13952 365.241l8.796875 -22.90625l3.265625 0l9.375 22.90625l-3.453125 0l-2.671875 -6.9375l-9.578125 0l-2.515625 6.9375l-3.21875 0zm6.609375 -9.40625l7.765625 0l-2.390625 -6.34375q-1.09375 -2.890625 -1.625 -4.75q-0.4375 2.203125 -1.234375 4.375l-2.515625 6.71875zm14.78125 9.796875l6.640625 -23.6875l2.25 0l-6.625 23.6875l-2.265625 0zm27.703133 -8.421875l3.03125 0.765625q-0.953125 3.734375 -3.4375 5.703125q-2.46875 1.953125 -6.0468826 1.953125q-3.703125 0 -6.03125 -1.5q-2.3125 -1.515625 -3.53125 -4.375q-1.203125 -2.859375 -1.203125 -6.140625q0 -3.578125 1.359375 -6.234375q1.375 -2.671875 3.890625 -4.046875q2.53125 -1.390625 5.5625 -1.390625q3.4375076 0 5.7812576 1.75q2.34375 1.75 3.265625 4.921875l-2.984375 0.703125q-0.796875 -2.5 -2.3125 -3.640625q-1.515625 -1.140625 -3.8125076 -1.140625q-2.640625 0 -4.421875 1.265625q-1.765625 1.265625 -2.484375 3.40625q-0.71875 2.125 -0.71875 4.390625q0 2.921875 0.84375 5.109375q0.859375 2.171875 2.65625 3.25q1.796875 1.078125 3.890625 1.078125q2.5468826 0 4.3125076 -1.46875q1.765625 -1.46875 2.390625 -4.359375z" fill-rule="nonzero"></path><path fill="#000000" fill-opacity="0.0" d="m0 195.91208l223.71654 0l0 48.0l-223.71654 0z" fill-rule="nonzero"></path><path fill="#ffffff" d="m75.93639 228.2727l2.859375 -0.25q0.203125 1.71875 0.9375 2.828125q0.75 1.09375 2.3125 1.78125q1.5625 0.671875 3.515625 0.671875q1.734375 0 3.0625 -0.515625q1.328125 -0.515625 1.96875 -1.40625q0.65625 -0.90625 0.65625 -1.96875q0 -1.078125 -0.625 -1.875q-0.625 -0.8125 -2.0625 -1.359375q-0.921875 -0.359375 -4.078125 -1.109375q-3.15625 -0.765625 -4.421875 -1.4375q-1.640625 -0.859375 -2.453125 -2.125q-0.796875 -1.28125 -0.796875 -2.859375q0 -1.734375 0.984375 -3.234375q0.984375 -1.515625 2.875 -2.296875q1.890625 -0.78125 4.203125 -0.78125q2.546875 0 4.484375 0.828125q1.953125 0.8125 3.0 2.40625q1.046875 1.59375 1.125 3.609375l-2.90625 0.21875q-0.234375 -2.171875 -1.59375 -3.28125q-1.34375 -1.109375 -3.984375 -1.109375q-2.75 0 -4.015625 1.015625q-1.25 1.0 -1.25 2.421875q0 1.234375 0.890625 2.03125q0.875 0.796875 4.5625 1.640625q3.703125 0.828125 5.078125 1.453125q2.0 0.921875 2.953125 2.34375q0.953125 1.40625 0.953125 3.25q0 1.828125 -1.046875 3.453125q-1.046875 1.609375 -3.015625 2.515625q-1.953125 0.890625 -4.40625 0.890625q-3.109375 0 -5.21875 -0.90625q-2.09375 -0.90625 -3.296875 -2.71875q-1.1875 -1.828125 -1.25 -4.125zm28.15625 4.84375l0.40625 2.484375q-1.1875 0.25 -2.125 0.25q-1.53125 0 -2.375 -0.484375q-0.84375 -0.484375 -1.1875 -1.265625q-0.34375 -0.796875 -0.34375 -3.328125l0 -9.546875l-2.0625 0l0 -2.1875l2.0625 0l0 -4.109375l2.796875 -1.6875l0 5.796875l2.828125 0l0 2.1875l-2.828125 0l0 9.703125q0 1.203125 0.140625 1.546875q0.15625 0.34375 0.484375 0.546875q0.34375 0.203125 0.96875 0.203125q0.46875 0 1.234375 -0.109375zm13.578125 0.46875q-1.5625 1.328125 -3.015625 1.875q-1.4375 0.546875 -3.09375 0.546875q-2.734375 0 -4.203125 -1.328125q-1.46875 -1.34375 -1.46875 -3.421875q0 -1.21875 0.546875 -2.21875q0.5625 -1.015625 1.453125 -1.625q0.90625 -0.609375 2.03125 -0.921875q0.828125 -0.21875 2.5 -0.421875q3.40625 -0.40625 5.015625 -0.96875q0.015625 -0.578125 0.015625 -0.734375q0 -1.71875 -0.796875 -2.421875q-1.078125 -0.953125 -3.203125 -0.953125q-1.984375 0 -2.9375 0.703125q-0.9375 0.6875 -1.390625 2.453125l-2.75 -0.375q0.375 -1.765625 1.234375 -2.84375q0.859375 -1.09375 2.484375 -1.671875q1.625 -0.59375 3.765625 -0.59375q2.125 0 3.453125 0.5q1.328125 0.5 1.953125 1.265625q0.625 0.75 0.875 1.90625q0.140625 0.71875 0.140625 2.59375l0 3.75q0 3.921875 0.171875 4.96875q0.1875 1.03125 0.71875 1.984375l-2.9375 0q-0.4375 -0.875 -0.5625 -2.046875zm-0.234375 -6.28125q-1.53125 0.625 -4.59375 1.0625q-1.734375 0.25 -2.453125 0.5625q-0.71875 0.3125 -1.109375 0.921875q-0.390625 0.59375 -0.390625 1.328125q0 1.125 0.84375 1.875q0.859375 0.75 2.5 0.75q1.625 0 2.890625 -0.703125q1.265625 -0.71875 1.859375 -1.953125q0.453125 -0.953125 0.453125 -2.8125l0 -1.03125zm13.343758 5.8125l0.40625 2.484375q-1.1875 0.25 -2.125 0.25q-1.5312576 0 -2.3750076 -0.484375q-0.84375 -0.484375 -1.1875 -1.265625q-0.34375 -0.796875 -0.34375 -3.328125l0 -9.546875l-2.0625 0l0 -2.1875l2.0625 0l0 -4.109375l2.796875 -1.6875l0 5.796875l2.8281326 0l0 2.1875l-2.8281326 0l0 9.703125q0 1.203125 0.14063263 1.546875q0.15625 0.34375 0.484375 0.546875q0.34375 0.203125 0.96875 0.203125q0.46875 0 1.234375 -0.109375zm14.109375 -2.828125l2.90625 0.359375q-0.6875 2.546875 -2.546875 3.953125q-1.859375 1.40625 -4.75 1.40625q-3.640625 0 -5.78125 -2.234375q-2.125 -2.25 -2.125 -6.296875q0 -4.1875 2.15625 -6.5q2.15625 -2.3125 5.59375 -2.3125q3.328125 0 5.4375 2.265625q2.109375 2.265625 2.109375 6.375q0 0.25 -0.015625 0.75l-12.375 0q0.15625 2.734375 1.546875 4.1875q1.390625 1.453125 3.46875 1.453125q1.546875 0 2.640625 -0.8125q1.09375 -0.8125 1.734375 -2.59375zm-9.234375 -4.546875l9.265625 0q-0.1875 -2.09375 -1.0625 -3.140625q-1.34375 -1.625 -3.484375 -1.625q-1.9375 0 -3.265625 1.296875q-1.3125 1.296875 -1.453125 3.46875z" fill-rule="nonzero"></path><path fill="#000000" fill-opacity="0.0" d="m44.45669 57.41995l134.80315 0l0 47.999996l-134.80315 0z" fill-rule="nonzero"></path><path fill="#ff0000" d="m80.53014 97.139946l0 -22.90625l7.890625 0q2.671875 0 4.078125 0.328125q1.96875 0.453125 3.359375 1.640625q1.8125 1.53125 2.703125 3.921875q0.90625 2.375 0.90625 5.4375q0 2.609375 -0.609375 4.625q-0.609375 2.015625 -1.5625 3.34375q-0.953125 1.3125 -2.09375 2.078125q-1.125 0.75 -2.734375 1.140625q-1.59375 0.390625 -3.671875 0.390625l-8.265625 0zm3.03125 -2.703125l4.890625 0q2.265625 0 3.546875 -0.421875q1.296875 -0.421875 2.0625 -1.1875q1.078125 -1.078125 1.671875 -2.890625q0.609375 -1.828125 0.609375 -4.421875q0 -3.59375 -1.1875 -5.515625q-1.171875 -1.9375 -2.859375 -2.59375q-1.21875 -0.46875 -3.921875 -0.46875l-4.8125 0l0 17.5zm30.546883 0.65625q-1.5625 1.328125 -3.015625 1.875q-1.4375 0.546875 -3.0937576 0.546875q-2.734375 0 -4.203125 -1.328125q-1.46875 -1.34375 -1.46875 -3.421875q0 -1.21875 0.546875 -2.21875q0.5625 -1.015625 1.453125 -1.625q0.90625 -0.609375 2.03125 -0.921875q0.828125 -0.21875 2.5000076 -0.421875q3.40625 -0.40625 5.015625 -0.96875q0.015625 -0.578125 0.015625 -0.734375q0 -1.71875 -0.796875 -2.421875q-1.078125 -0.953125 -3.203125 -0.953125q-1.9843826 0 -2.9375076 0.703125q-0.9375 0.6875 -1.390625 2.453125l-2.75 -0.375q0.375 -1.765625 1.234375 -2.84375q0.859375 -1.09375 2.484375 -1.671875q1.625 -0.59375 3.7656326 -0.59375q2.125 0 3.453125 0.5q1.328125 0.5 1.953125 1.265625q0.625 0.75 0.875 1.90625q0.140625 0.71875 0.140625 2.59375l0 3.75q0 3.921875 0.171875 4.96875q0.1875 1.03125 0.71875 1.984375l-2.9375 0q-0.4375 -0.875 -0.5625 -2.046875zm-0.234375 -6.28125q-1.53125 0.625 -4.59375 1.0625q-1.7343826 0.25 -2.4531326 0.5625q-0.71875 0.3125 -1.109375 0.921875q-0.390625 0.59375 -0.390625 1.328125q0 1.125 0.84375 1.875q0.859375 0.75 2.5000076 0.75q1.625 0 2.890625 -0.703125q1.265625 -0.71875 1.859375 -1.953125q0.453125 -0.953125 0.453125 -2.8125l0 -1.03125zm13.34375 5.8125l0.40625 2.484375q-1.1875 0.25 -2.125 0.25q-1.53125 0 -2.375 -0.484375q-0.84375 -0.484375 -1.1875 -1.265625q-0.34375 -0.796875 -0.34375 -3.328125l0 -9.546875l-2.0625 0l0 -2.1875l2.0625 0l0 -4.109375l2.796875 -1.6875l0 5.796875l2.828125 0l0 2.1875l-2.828125 0l0 9.703125q0 1.203125 0.140625 1.546875q0.15625 0.34375 0.484375 0.546875q0.34375 0.203125 0.96875 0.203125q0.46875 0 1.234375 -0.109375zm13.578125 0.46875q-1.5625 1.328125 -3.015625 1.875q-1.4375 0.546875 -3.09375 0.546875q-2.734375 0 -4.203125 -1.328125q-1.46875 -1.34375 -1.46875 -3.421875q0 -1.21875 0.546875 -2.21875q0.5625 -1.015625 1.453125 -1.625q0.90625 -0.609375 2.03125 -0.921875q0.828125 -0.21875 2.5 -0.421875q3.40625 -0.40625 5.015625 -0.96875q0.015625 -0.578125 0.015625 -0.734375q0 -1.71875 -0.796875 -2.421875q-1.078125 -0.953125 -3.203125 -0.953125q-1.984375 0 -2.9375 0.703125q-0.9375 0.6875 -1.390625 2.453125l-2.75 -0.375q0.375 -1.765625 1.234375 -2.84375q0.859375 -1.09375 2.484375 -1.671875q1.625 -0.59375 3.765625 -0.59375q2.125 0 3.453125 0.5q1.328125 0.5 1.953125 1.265625q0.625 0.75 0.875 1.90625q0.140625 0.71875 0.140625 2.59375l0 3.75q0 3.921875 0.171875 4.96875q0.1875 1.03125 0.71875 1.984375l-2.9375 0q-0.4375 -0.875 -0.5625 -2.046875zm-0.234375 -6.28125q-1.53125 0.625 -4.59375 1.0625q-1.734375 0.25 -2.453125 0.5625q-0.71875 0.3125 -1.109375 0.921875q-0.390625 0.59375 -0.390625 1.328125q0 1.125 0.84375 1.875q0.859375 0.75 2.5 0.75q1.625 0 2.890625 -0.703125q1.265625 -0.71875 1.859375 -1.953125q0.453125 -0.953125 0.453125 -2.8125l0 -1.03125z" fill-rule="nonzero"></path><path fill="#cfe2f3" d="m277.89764 143.91208l51.55905 -49.244102l51.55905 49.244102l-25.779541 0l0 49.244095l-51.55905 0l0 -49.244095z" fill-rule="nonzero"></path><path stroke="#000000" stroke-width="2.0" stroke-linejoin="round" stroke-linecap="butt" d="m277.89764 143.91208l51.55905 -49.244102l51.55905 49.244102l-25.779541 0l0 49.244095l-51.55905 0l0 -49.244095z" fill-rule="nonzero"></path><path fill="#cfe2f3" d="m381.01575 269.20078l-51.55905 49.24411l-51.55905 -49.24411l25.77951 0l0 -49.24408l51.55905 0l0 49.24408z" fill-rule="nonzero"></path><path stroke="#000000" stroke-width="2.0" stroke-linejoin="round" stroke-linecap="butt" d="m381.01575 269.20078l-51.55905 49.24411l-51.55905 -49.24411l25.77951 0l0 -49.24408l51.55905 0l0 49.24408z" fill-rule="nonzero"></path><path fill="#ffff00" d="m465.23358 14.505249l134.80316 0l0 133.82677l-134.80316 0z" fill-rule="nonzero"></path><path fill="#000000" fill-opacity="0.0" d="m460.4987 50.09974l134.80313 0l0 48.0l-134.80313 0z" fill-rule="nonzero"></path><path fill="#ff0000" d="m496.57214 89.81974l0 -22.90625l7.890625 0q2.671875 0 4.078125 0.328125q1.96875 0.453125 3.359375 1.640625q1.8125 1.53125 2.703125 3.921875q0.90625 2.375 0.90625 5.4375q0 2.609375 -0.609375 4.625q-0.609375 2.015625 -1.5625 3.34375q-0.953125 1.3125 -2.09375 2.078125q-1.125 0.75 -2.734375 1.140625q-1.59375 0.390625 -3.671875 0.390625l-8.265625 0zm3.03125 -2.703125l4.890625 0q2.265625 0 3.546875 -0.421875q1.296875 -0.421875 2.0625 -1.1875q1.078125 -1.078125 1.671875 -2.890625q0.609375 -1.828125 0.609375 -4.421875q0 -3.59375 -1.1875 -5.515625q-1.171875 -1.9375 -2.859375 -2.59375q-1.21875 -0.46875 -3.921875 -0.46875l-4.8125 0l0 17.5zm30.546875 0.65625q-1.5625 1.328125 -3.015625 1.875q-1.4375 0.546875 -3.09375 0.546875q-2.734375 0 -4.203125 -1.328125q-1.46875 -1.34375 -1.46875 -3.421875q0 -1.21875 0.546875 -2.21875q0.5625 -1.015625 1.453125 -1.625q0.90625 -0.609375 2.03125 -0.921875q0.828125 -0.21875 2.5 -0.421875q3.40625 -0.40625 5.015625 -0.96875q0.015625 -0.578125 0.015625 -0.734375q0 -1.71875 -0.796875 -2.421875q-1.078125 -0.953125 -3.203125 -0.953125q-1.984375 0 -2.9375 0.703125q-0.9375 0.6875 -1.390625 2.453125l-2.75 -0.375q0.375 -1.765625 1.234375 -2.84375q0.859375 -1.09375 2.484375 -1.671875q1.625 -0.59375 3.765625 -0.59375q2.125 0 3.453125 0.5q1.328125 0.5 1.953125 1.265625q0.625 0.75 0.875 1.90625q0.140625 0.71875 0.140625 2.59375l0 3.75q0 3.921875 0.171875 4.96875q0.1875 1.03125 0.71875 1.984375l-2.9375 0q-0.4375 -0.875 -0.5625 -2.046875zm-0.234375 -6.28125q-1.53125 0.625 -4.59375 1.0625q-1.734375 0.25 -2.453125 0.5625q-0.71875 0.3125 -1.109375 0.921875q-0.390625 0.59375 -0.390625 1.328125q0 1.125 0.84375 1.875q0.859375 0.75 2.5 0.75q1.625 0 2.890625 -0.703125q1.265625 -0.71875 1.859375 -1.953125q0.453125 -0.953125 0.453125 -2.8125l0 -1.03125zm13.34375 5.8125l0.40625 2.484375q-1.1875 0.25 -2.125 0.25q-1.53125 0 -2.375 -0.484375q-0.84375 -0.484375 -1.1875 -1.265625q-0.34375 -0.796875 -0.34375 -3.328125l0 -9.546875l-2.0625 0l0 -2.1875l2.0625 0l0 -4.109375l2.796875 -1.6875l0 5.796875l2.828125 0l0 2.1875l-2.828125 0l0 9.703125q0 1.203125 0.140625 1.546875q0.15625 0.34375 0.484375 0.546875q0.34375 0.203125 0.96875 0.203125q0.46875 0 1.234375 -0.109375zm13.578125 0.46875q-1.5625 1.328125 -3.015625 1.875q-1.4375 0.546875 -3.09375 0.546875q-2.734375 0 -4.203125 -1.328125q-1.46875 -1.34375 -1.46875 -3.421875q0 -1.21875 0.546875 -2.21875q0.5625 -1.015625 1.453125 -1.625q0.90625 -0.609375 2.03125 -0.921875q0.828125 -0.21875 2.5 -0.421875q3.40625 -0.40625 5.015625 -0.96875q0.015625 -0.578125 0.015625 -0.734375q0 -1.71875 -0.796875 -2.421875q-1.078125 -0.953125 -3.203125 -0.953125q-1.984375 0 -2.9375 0.703125q-0.9375 0.6875 -1.390625 2.453125l-2.75 -0.375q0.375 -1.765625 1.234375 -2.84375q0.859375 -1.09375 2.484375 -1.671875q1.625 -0.59375 3.765625 -0.59375q2.125 0 3.453125 0.5q1.328125 0.5 1.953125 1.265625q0.625 0.75 0.875 1.90625q0.140625 0.71875 0.140625 2.59375l0 3.75q0 3.921875 0.171875 4.96875q0.1875 1.03125 0.71875 1.984375l-2.9375 0q-0.4375 -0.875 -0.5625 -2.046875zm-0.234375 -6.28125q-1.53125 0.625 -4.59375 1.0625q-1.734375 0.25 -2.453125 0.5625q-0.71875 0.3125 -1.109375 0.921875q-0.390625 0.59375 -0.390625 1.328125q0 1.125 0.84375 1.875q0.859375 0.75 2.5 0.75q1.625 0 2.890625 -0.703125q1.265625 -0.71875 1.859375 -1.953125q0.453125 -0.953125 0.453125 -2.8125l0 -1.03125z" fill-rule="nonzero"></path><path fill="#000000" d="m517.56433 394.29004l0 0c0 -7.549347 5.908386 -13.669312 13.196838 -13.669312l0 0c3.5 0 6.8566895 1.440155 9.331543 4.003662c2.4749146 2.5634766 3.8652954 6.0403137 3.8652954 9.665649l0 0c0 7.5493164 -5.9084473 13.669281 -13.196838 13.669281l0 0c-7.288452 0 -13.196838 -6.1199646 -13.196838 -13.669281z" fill-rule="nonzero"></path><path stroke="#ffffff" stroke-width="4.0" stroke-linejoin="round" stroke-linecap="butt" d="m517.56433 394.29004l0 0c0 -7.549347 5.908386 -13.669312 13.196838 -13.669312l0 0c3.5 0 6.8566895 1.440155 9.331543 4.003662c2.4749146 2.5634766 3.8652954 6.0403137 3.8652954 9.665649l0 0c0 7.5493164 -5.9084473 13.669281 -13.196838 13.669281l0 0c-7.288452 0 -13.196838 -6.1199646 -13.196838 -13.669281z" fill-rule="nonzero"></path><path fill="#ff9900" d="m467.60104 157.86482l134.80313 0l0 133.82677l-134.80313 0z" fill-rule="nonzero"></path><path fill="#4a86e8" d="m467.60104 305.73883l134.80313 0l0 133.82678l-134.80313 0z" fill-rule="nonzero"></path><path fill="#000000" fill-opacity="0.0" d="m418.40945 337.31104l223.71652 0l0 48.0l-223.71652 0z" fill-rule="nonzero"></path><path fill="#ffffff" d="m503.54898 377.03104l8.7968445 -22.90625l3.265625 0l9.375 22.90625l-3.453125 0l-2.671875 -6.9375l-9.5780945 0l-2.515625 6.9375l-3.21875 0zm6.609375 -9.40625l7.7655945 0l-2.390625 -6.34375q-1.09375 -2.890625 -1.625 -4.75q-0.4375 2.203125 -1.234375 4.375l-2.5155945 6.71875zm14.7812195 9.796875l6.640625 -23.6875l2.25 0l-6.625 23.6875l-2.265625 0zm27.703125 -8.421875l3.03125 0.765625q-0.953125 3.734375 -3.4375 5.703125q-2.46875 1.953125 -6.046875 1.953125q-3.703125 0 -6.03125 -1.5q-2.3125 -1.515625 -3.53125 -4.375q-1.203125 -2.859375 -1.203125 -6.140625q0 -3.578125 1.359375 -6.234375q1.375 -2.671875 3.890625 -4.046875q2.53125 -1.390625 5.5625 -1.390625q3.4375 0 5.78125 1.75q2.34375 1.75 3.265625 4.921875l-2.984375 0.703125q-0.796875 -2.5 -2.3125 -3.640625q-1.515625 -1.140625 -3.8125 -1.140625q-2.640625 0 -4.421875 1.265625q-1.765625 1.265625 -2.484375 3.40625q-0.71875 2.125 -0.71875 4.390625q0 2.921875 0.84375 5.109375q0.859375 2.171875 2.65625 3.25q1.796875 1.078125 3.890625 1.078125q2.546875 0 4.3125 -1.46875q1.765625 -1.46875 2.390625 -4.359375z" fill-rule="nonzero"></path><path fill="#000000" fill-opacity="0.0" d="m418.40945 194.93045l223.71652 0l0 48.0l-223.71652 0z" fill-rule="nonzero"></path><path fill="#ffffff" d="m494.34586 227.29108l2.859375 -0.25q0.203125 1.71875 0.9375 2.828125q0.75 1.09375 2.3125 1.78125q1.5625 0.671875 3.515625 0.671875q1.734375 0 3.0625 -0.515625q1.328125 -0.515625 1.96875 -1.40625q0.65625 -0.90625 0.65625 -1.96875q0 -1.078125 -0.625 -1.875q-0.625 -0.8125 -2.0625 -1.359375q-0.921875 -0.359375 -4.078125 -1.109375q-3.15625 -0.765625 -4.421875 -1.4375q-1.640625 -0.859375 -2.453125 -2.125q-0.796875 -1.28125 -0.796875 -2.859375q0 -1.734375 0.984375 -3.234375q0.984375 -1.515625 2.875 -2.296875q1.890625 -0.78125 4.203125 -0.78125q2.546875 0 4.484375 0.828125q1.953125 0.8125 3.0 2.40625q1.046875 1.59375 1.125 3.609375l-2.90625 0.21875q-0.234375 -2.171875 -1.59375 -3.28125q-1.34375 -1.109375 -3.984375 -1.109375q-2.75 0 -4.015625 1.015625q-1.25 1.0 -1.25 2.421875q0 1.234375 0.890625 2.03125q0.875 0.796875 4.5625 1.640625q3.703125 0.828125 5.078125 1.453125q2.0 0.921875 2.953125 2.34375q0.9530945 1.40625 0.9530945 3.25q0 1.828125 -1.0468445 3.453125q-1.046875 1.609375 -3.015625 2.515625q-1.953125 0.890625 -4.40625 0.890625q-3.109375 0 -5.21875 -0.90625q-2.09375 -0.90625 -3.296875 -2.71875q-1.1875 -1.828125 -1.25 -4.125zm28.15622 4.84375l0.40625 2.484375q-1.1875 0.25 -2.125 0.25q-1.53125 0 -2.375 -0.484375q-0.84375 -0.484375 -1.1875 -1.265625q-0.34375 -0.796875 -0.34375 -3.328125l0 -9.546875l-2.0625 0l0 -2.1875l2.0625 0l0 -4.109375l2.796875 -1.6875l0 5.796875l2.828125 0l0 2.1875l-2.828125 0l0 9.703125q0 1.203125 0.140625 1.546875q0.15625 0.34375 0.484375 0.546875q0.34375 0.203125 0.96875 0.203125q0.46875 0 1.234375 -0.109375zm13.578125 0.46875q-1.5625 1.328125 -3.015625 1.875q-1.4375 0.546875 -3.09375 0.546875q-2.734375 0 -4.203125 -1.328125q-1.46875 -1.34375 -1.46875 -3.421875q0 -1.21875 0.546875 -2.21875q0.5625 -1.015625 1.453125 -1.625q0.90625 -0.609375 2.03125 -0.921875q0.828125 -0.21875 2.5 -0.421875q3.40625 -0.40625 5.015625 -0.96875q0.015625 -0.578125 0.015625 -0.734375q0 -1.71875 -0.796875 -2.421875q-1.078125 -0.953125 -3.203125 -0.953125q-1.984375 0 -2.9375 0.703125q-0.9375 0.6875 -1.390625 2.453125l-2.75 -0.375q0.375 -1.765625 1.234375 -2.84375q0.859375 -1.09375 2.484375 -1.671875q1.625 -0.59375 3.765625 -0.59375q2.125 0 3.453125 0.5q1.328125 0.5 1.953125 1.265625q0.625 0.75 0.875 1.90625q0.140625 0.71875 0.140625 2.59375l0 3.75q0 3.921875 0.171875 4.96875q0.1875 1.03125 0.71875 1.984375l-2.9375 0q-0.4375 -0.875 -0.5625 -2.046875zm-0.234375 -6.28125q-1.53125 0.625 -4.59375 1.0625q-1.734375 0.25 -2.453125 0.5625q-0.71875 0.3125 -1.109375 0.921875q-0.390625 0.59375 -0.390625 1.328125q0 1.125 0.84375 1.875q0.859375 0.75 2.5 0.75q1.625 0 2.890625 -0.703125q1.265625 -0.71875 1.859375 -1.953125q0.453125 -0.953125 0.453125 -2.8125l0 -1.03125zm13.34375 5.8125l0.40625 2.484375q-1.1875 0.25 -2.125 0.25q-1.53125 0 -2.375 -0.484375q-0.84375 -0.484375 -1.1875 -1.265625q-0.34375 -0.796875 -0.34375 -3.328125l0 -9.546875l-2.0625 0l0 -2.1875l2.0625 0l0 -4.109375l2.796875 -1.6875l0 5.796875l2.828125 0l0 2.1875l-2.828125 0l0 9.703125q0 1.203125 0.140625 1.546875q0.15625 0.34375 0.484375 0.546875q0.34375 0.203125 0.96875 0.203125q0.46875 0 1.234375 -0.109375zm14.109375 -2.828125l2.90625 0.359375q-0.6875 2.546875 -2.546875 3.953125q-1.859375 1.40625 -4.75 1.40625q-3.640625 0 -5.78125 -2.234375q-2.125 -2.25 -2.125 -6.296875q0 -4.1875 2.15625 -6.5q2.15625 -2.3125 5.59375 -2.3125q3.328125 0 5.4375 2.265625q2.109375 2.265625 2.109375 6.375q0 0.25 -0.015625 0.75l-12.375 0q0.15625 2.734375 1.546875 4.1875q1.390625 1.453125 3.46875 1.453125q1.546875 0 2.640625 -0.8125q1.09375 -0.8125 1.734375 -2.59375zm-9.234375 -4.546875l9.265625 0q-0.1875 -2.09375 -1.0625 -3.140625q-1.34375 -1.625 -3.484375 -1.625q-1.9375 0 -3.265625 1.296875q-1.3125 1.296875 -1.453125 3.46875z" fill-rule="nonzero"></path><path fill="#00ff00" d="m465.23358 458.8281l134.80316 0l0 133.82675l-134.80316 0z" fill-rule="nonzero"></path><path fill="#000000" fill-opacity="0.0" d="m420.77692 491.77036l223.71655 0l0 47.99997l-223.71655 0z" fill-rule="nonzero"></path><path fill="#ff0000" d="m476.26016 524.131l2.859375 -0.25q0.203125 1.71875 0.9375 2.828125q0.75 1.09375 2.3125 1.78125q1.5625 0.671875 3.515625 0.671875q1.734375 0 3.0625 -0.515625q1.328125 -0.515625 1.96875 -1.40625q0.65625 -0.90625 0.65625 -1.96875q0 -1.078125 -0.625 -1.875q-0.625 -0.8125 -2.0625 -1.359375q-0.921875 -0.359375 -4.078125 -1.109375q-3.15625 -0.765625 -4.421875 -1.4375q-1.640625 -0.859375 -2.453125 -2.125q-0.796875 -1.28125 -0.796875 -2.859375q0 -1.734375 0.984375 -3.234375q0.984375 -1.515625 2.875 -2.296875q1.890625 -0.78125 4.203125 -0.78125q2.546875 0 4.484375 0.828125q1.953125 0.8125 3.0 2.40625q1.046875 1.59375 1.125 3.609375l-2.90625 0.21875q-0.234375 -2.171875 -1.59375 -3.28125q-1.34375 -1.109375 -3.984375 -1.109375q-2.75 0 -4.015625 1.015625q-1.25 1.0 -1.25 2.421875q0 1.234375 0.890625 2.03125q0.875 0.796875 4.5625 1.640625q3.703125 0.828125 5.078125 1.453125q2.0 0.921875 2.953125 2.34375q0.953125 1.40625 0.953125 3.25q0 1.828125 -1.046875 3.453125q-1.046875 1.609375 -3.015625 2.515625q-1.953125 0.890625 -4.40625 0.890625q-3.109375 0 -5.21875 -0.90625q-2.09375 -0.90625 -3.296875 -2.71875q-1.1875 -1.828125 -1.25 -4.125zm33.375 2.015625l2.9062805 0.359375q-0.6875305 2.546875 -2.5469055 3.953125q-1.859375 1.40625 -4.75 1.40625q-3.640625 0 -5.78125 -2.234375q-2.125 -2.25 -2.125 -6.296875q0 -4.1875 2.15625 -6.5q2.15625 -2.3125 5.59375 -2.3125q3.328125 0 5.4375 2.265625q2.1094055 2.265625 2.1094055 6.375q0 0.25 -0.015625 0.75l-12.3750305 0q0.15625 2.734375 1.546875 4.1875q1.390625 1.453125 3.46875 1.453125q1.546875 0 2.640625 -0.8125q1.09375 -0.8125 1.734375 -2.59375zm-9.234375 -4.546875l9.265625 0q-0.1875 -2.09375 -1.0625 -3.140625q-1.34375 -1.625 -3.484375 -1.625q-1.9375 0 -3.265625 1.296875q-1.3125 1.296875 -1.453125 3.46875zm21.81253 7.375l0.40625 2.484375q-1.1875 0.25 -2.125 0.25q-1.53125 0 -2.375 -0.484375q-0.84375 -0.484375 -1.1875 -1.265625q-0.34375 -0.796875 -0.34375 -3.328125l0 -9.546875l-2.0625 0l0 -2.1875l2.0625 0l0 -4.109375l2.796875 -1.6875l0 5.796875l2.828125 0l0 2.1875l-2.828125 0l0 9.703125q0 1.203125 0.140625 1.546875q0.15625 0.34375 0.484375 0.546875q0.34375 0.203125 0.96875 0.203125q0.46875 0 1.234375 -0.109375zm8.890625 0l0.40625 2.484375q-1.1875 0.25 -2.125 0.25q-1.53125 0 -2.375 -0.484375q-0.84375 -0.484375 -1.1875 -1.265625q-0.34375 -0.796875 -0.34375 -3.328125l0 -9.546875l-2.0625 0l0 -2.1875l2.0625 0l0 -4.109375l2.796875 -1.6875l0 5.796875l2.828125 0l0 2.1875l-2.828125 0l0 9.703125q0 1.203125 0.140625 1.546875q0.15625 0.34375 0.484375 0.546875q0.34375 0.203125 0.96875 0.203125q0.46875 0 1.234375 -0.109375zm2.765625 -17.15625l0 -3.234375l2.8125 0l0 3.234375l-2.8125 0zm0 19.671875l0 -16.59375l2.8125 0l0 16.59375l-2.8125 0zm7.09375 0l0 -16.59375l2.53125 0l0 2.359375q1.828125 -2.734375 5.28125 -2.734375q1.5 0 2.75 0.546875q1.265625 0.53125 1.890625 1.40625q0.625 0.875 0.875 2.078125q0.15625 0.78125 0.15625 2.734375l0 10.203125l-2.8125 0l0 -10.09375q0 -1.71875 -0.328125 -2.5625q-0.328125 -0.859375 -1.171875 -1.359375q-0.828125 -0.515625 -1.953125 -0.515625q-1.796875 0 -3.109375 1.140625q-1.296875 1.140625 -1.296875 4.328125l0 9.0625l-2.8125 0zm17.28125 1.375l2.734375 0.40625q0.171875 1.265625 0.953125 1.84375q1.046875 0.78125 2.859375 0.78125q1.953125 0 3.015625 -0.78125q1.0625 -0.78125 1.4375 -2.1875q0.21875 -0.859375 0.203125 -3.609375q-1.84375 2.171875 -4.59375 2.171875q-3.421875 0 -5.296875 -2.46875q-1.875 -2.46875 -1.875 -5.921875q0 -2.375 0.859375 -4.375q0.859375 -2.015625 2.484375 -3.109375q1.640625 -1.09375 3.84375 -1.09375q2.9375 0 4.84375 2.375l0 -2.0l2.59375 0l0 14.34375q0 3.875 -0.796875 5.484375q-0.78125 1.625 -2.5 2.5625q-1.703125 0.9375 -4.203125 0.9375q-2.96875 0 -4.796875 -1.34375q-1.828125 -1.328125 -1.765625 -4.015625zm2.328125 -9.96875q0 3.265625 1.296875 4.765625q1.296875 1.5 3.25 1.5q1.9375 0 3.25 -1.484375q1.3125 -1.5 1.3125 -4.6875q0 -3.046875 -1.359375 -4.59375q-1.34375 -1.546875 -3.25 -1.546875q-1.875 0 -3.1875 1.53125q-1.3125 1.515625 -1.3125 4.515625zm14.859375 3.640625l2.78125 -0.4375q0.234375 1.671875 1.296875 2.5625q1.078125 0.890625 3.0 0.890625q1.9375 0 2.875 -0.78125q0.9375 -0.796875 0.9375 -1.859375q0 -0.953125 -0.828125 -1.5q-0.578125 -0.375 -2.875 -0.953125q-3.09375 -0.78125 -4.296875 -1.34375q-1.1875 -0.578125 -1.8125 -1.578125q-0.609375 -1.015625 -0.609375 -2.234375q0 -1.109375 0.5 -2.046875q0.515625 -0.953125 1.390625 -1.578125q0.65625 -0.484375 1.78125 -0.8125q1.140625 -0.34375 2.4375 -0.34375q1.953125 0 3.421875 0.5625q1.484375 0.5625 2.1875 1.53125q0.703125 0.953125 0.96875 2.5625l-2.75 0.375q-0.1875 -1.28125 -1.09375 -2.0q-0.890625 -0.71875 -2.53125 -0.71875q-1.9375 0 -2.765625 0.640625q-0.828125 0.640625 -0.828125 1.5q0 0.546875 0.34375 0.984375q0.34375 0.453125 1.078125 0.75q0.421875 0.15625 2.484375 0.71875q2.984375 0.796875 4.15625 1.3125q1.1875 0.5 1.859375 1.46875q0.671875 0.96875 0.671875 2.40625q0 1.40625 -0.828125 2.65625q-0.8125 1.234375 -2.359375 1.921875q-1.546875 0.671875 -3.5 0.671875q-3.234375 0 -4.9375 -1.34375q-1.6875 -1.34375 -2.15625 -3.984375z" fill-rule="nonzero"></path></g></svg>

